<svg width="225" height="155" viewBox="0 0 225 155" fill="none" xmlns="http://www.w3.org/2000/svg">
<path d="M190.883 77.5C190.883 98.0543 182.699 117.767 168.131 132.301C153.563 146.835 133.805 155 113.203 155C92.6009 155 72.8426 146.835 58.2747 132.301C43.7069 117.767 35.5227 98.0543 35.5227 77.5L190.883 77.5Z" fill="url(#paint0_linear_1_10114)"/>
<path d="M191.552 77.5C191.552 56.9457 183.368 37.2333 168.8 22.6992C154.232 8.16516 134.474 1.55181e-06 113.872 0C93.2699 -1.5518e-06 73.5117 8.16515 58.9438 22.6992C44.3759 37.2333 36.1918 56.9457 36.1918 77.5L191.552 77.5Z" fill="#E7EAF0"/>
<rect x="24.4547" y="67.8918" width="175.021" height="49.1122" rx="11.261" fill="white" stroke="black" stroke-width="0.875318"/>
<rect x="12.0703" y="52.664" width="201.549" height="56.417" rx="13.4361" fill="white" stroke="black" stroke-width="0.875318"/>
<rect x="0.562341" y="38.3124" width="223.846" height="62.5883" rx="14.8804" fill="white" stroke="black" stroke-width="0.875318"/>
<ellipse cx="37.6805" cy="69.6069" rx="17.9815" ry="17.9398" fill="#E6DFF9"/>
<path d="M36.906 61.7553C37.0174 60.679 38.5881 60.679 38.6995 61.7553C39.0721 65.3537 41.9258 68.2047 45.5258 68.561C46.6028 68.6676 46.6028 70.2376 45.5258 70.3442C41.9258 70.7005 39.0721 73.5516 38.6995 77.1499C38.5881 78.2262 37.0174 78.2262 36.906 77.1499C36.5334 73.5516 33.6797 70.7005 30.0797 70.3442C29.0028 70.2376 29.0028 68.6676 30.0797 68.561C33.6797 68.2047 36.5334 65.3537 36.906 61.7553Z" fill="#6761B7"/>
<rect x="63.9888" y="74.63" width="63.7715" height="8.61111" rx="4.30556" fill="#E7EAF0"/>
<rect x="63.9888" y="55.9727" width="40.6456" height="8.61111" rx="4.30556" fill="#E7EAF0"/>
<rect x="143.323" y="59.5623" width="65.43" height="21.1165" rx="7.26514" fill="#E6DFF9"/>
<rect x="143.323" y="59.5623" width="65.43" height="21.1165" rx="7.26514" stroke="#1A148F" stroke-width="0.875318"/>
<path d="M151.753 75.2512C151.137 75.2512 150.588 75.1455 150.107 74.9341C149.628 74.7227 149.247 74.429 148.964 74.0529C148.685 73.6737 148.532 73.2338 148.507 72.7334H149.682C149.707 73.0411 149.813 73.3069 149.999 73.5307C150.186 73.7514 150.43 73.9223 150.731 74.0436C151.033 74.1648 151.367 74.2254 151.734 74.2254C152.144 74.2254 152.508 74.1539 152.825 74.0109C153.142 73.8679 153.391 73.669 153.571 73.4141C153.751 73.1592 153.841 72.8639 153.841 72.5282C153.841 72.177 153.754 71.8677 153.58 71.6004C153.406 71.3299 153.151 71.1186 152.816 70.9663C152.48 70.814 152.07 70.7378 151.585 70.7378H150.82V69.712H151.585C151.964 69.712 152.297 69.6437 152.582 69.5069C152.872 69.3701 153.097 69.1774 153.259 68.9287C153.423 68.6801 153.506 68.3879 153.506 68.0522C153.506 67.7289 153.434 67.4476 153.291 67.2082C153.148 66.9689 152.946 66.7824 152.685 66.6487C152.427 66.5151 152.122 66.4482 151.771 66.4482C151.442 66.4482 151.131 66.5089 150.839 66.6301C150.55 66.7482 150.313 66.9207 150.13 67.1476C149.947 67.3714 149.847 67.6419 149.832 67.9589H148.713C148.731 67.4585 148.882 67.0202 149.165 66.6441C149.448 66.2648 149.818 65.9696 150.275 65.7582C150.735 65.5468 151.24 65.4411 151.79 65.4411C152.38 65.4411 152.887 65.5608 153.31 65.8001C153.733 66.0364 154.057 66.3488 154.284 66.7373C154.511 67.1259 154.625 67.5455 154.625 67.9962C154.625 68.534 154.483 68.9924 154.2 69.3717C153.921 69.7509 153.54 70.0135 153.058 70.1596V70.2342C153.661 70.3337 154.132 70.5902 154.471 71.0036C154.81 71.4139 154.979 71.9221 154.979 72.5282C154.979 73.0473 154.838 73.5136 154.555 73.927C154.275 74.3373 153.893 74.6606 153.408 74.8968C152.923 75.133 152.371 75.2512 151.753 75.2512ZM159.87 75.2512C159.323 75.2512 158.83 75.1424 158.392 74.9248C157.954 74.7072 157.603 74.4088 157.338 74.0296C157.074 73.6503 156.93 73.2183 156.905 72.7334H158.024C158.067 73.1654 158.263 73.5229 158.611 73.8058C158.962 74.0855 159.382 74.2254 159.87 74.2254C160.262 74.2254 160.61 74.1337 160.914 73.9503C161.222 73.7669 161.463 73.5151 161.637 73.195C161.814 72.8717 161.903 72.5065 161.903 72.0993C161.903 71.6827 161.811 71.3113 161.628 70.9849C161.448 70.6554 161.199 70.3959 160.882 70.2063C160.565 70.0167 160.203 69.9203 159.795 69.9172C159.503 69.9141 159.203 69.9592 158.896 70.0524C158.588 70.1425 158.335 70.2591 158.136 70.4021L157.054 70.2715L157.632 65.5717H162.593V66.5974H158.602L158.266 69.4136H158.322C158.518 69.2582 158.763 69.1292 159.059 69.0266C159.354 68.9241 159.662 68.8728 159.982 68.8728C160.566 68.8728 161.087 69.0127 161.544 69.2924C162.004 69.5691 162.365 69.9483 162.626 70.4301C162.89 70.9119 163.022 71.462 163.022 72.0806C163.022 72.6899 162.885 73.2338 162.612 73.7125C162.341 74.1881 161.968 74.5642 161.493 74.8409C161.017 75.1144 160.476 75.2512 159.87 75.2512ZM169.742 73.3302V72.8266C169.742 72.4785 169.813 72.1599 169.956 71.8708C170.102 71.5786 170.314 71.3455 170.59 71.1714C170.87 70.9942 171.209 70.9057 171.607 70.9057C172.011 70.9057 172.35 70.9942 172.623 71.1714C172.897 71.3455 173.104 71.5786 173.243 71.8708C173.383 72.1599 173.453 72.4785 173.453 72.8266V73.3302C173.453 73.6783 173.382 73.9985 173.239 74.2907C173.099 74.5797 172.891 74.8129 172.614 74.9901C172.34 75.1641 172.005 75.2512 171.607 75.2512C171.203 75.2512 170.862 75.1641 170.586 74.9901C170.309 74.8129 170.099 74.5797 169.956 74.2907C169.813 73.9985 169.742 73.6783 169.742 73.3302ZM170.693 72.8266V73.3302C170.693 73.6193 170.761 73.8788 170.898 74.1088C171.035 74.3357 171.271 74.4492 171.607 74.4492C171.933 74.4492 172.163 74.3357 172.297 74.1088C172.434 73.8788 172.502 73.6193 172.502 73.3302V72.8266C172.502 72.5375 172.437 72.2796 172.306 72.0526C172.176 71.8226 171.943 71.7076 171.607 71.7076C171.281 71.7076 171.046 71.8226 170.903 72.0526C170.763 72.2796 170.693 72.5375 170.693 72.8266ZM164.986 67.8657V67.3621C164.986 67.014 165.058 66.6954 165.201 66.4063C165.347 66.1141 165.558 65.881 165.835 65.7069C166.114 65.5297 166.453 65.4411 166.851 65.4411C167.255 65.4411 167.594 65.5297 167.868 65.7069C168.141 65.881 168.348 66.1141 168.488 66.4063C168.628 66.6954 168.697 67.014 168.697 67.3621V67.8657C168.697 68.2138 168.626 68.534 168.483 68.8261C168.343 69.1152 168.135 69.3484 167.858 69.5255C167.585 69.6996 167.249 69.7866 166.851 69.7866C166.447 69.7866 166.107 69.6996 165.83 69.5255C165.553 69.3484 165.344 69.1152 165.201 68.8261C165.058 68.534 164.986 68.2138 164.986 67.8657ZM165.937 67.3621V67.8657C165.937 68.1547 166.006 68.4143 166.142 68.6443C166.279 68.8712 166.515 68.9847 166.851 68.9847C167.177 68.9847 167.407 68.8712 167.541 68.6443C167.678 68.4143 167.746 68.1547 167.746 67.8657V67.3621C167.746 67.073 167.681 66.815 167.55 66.5881C167.42 66.3581 167.187 66.2431 166.851 66.2431C166.525 66.2431 166.29 66.3581 166.147 66.5881C166.007 66.815 165.937 67.073 165.937 67.3621ZM165.34 75.1206L171.905 65.5717H172.968L166.403 75.1206H165.34ZM187.46 70.3461C187.46 71.3533 187.278 72.2236 186.914 72.9572C186.55 73.6908 186.052 74.2565 185.417 74.6543C184.783 75.0522 184.059 75.2512 183.245 75.2512C182.43 75.2512 181.706 75.0522 181.072 74.6543C180.438 74.2565 179.939 73.6908 179.575 72.9572C179.212 72.2236 179.03 71.3533 179.03 70.3461C179.03 69.339 179.212 68.4687 179.575 67.7351C179.939 67.0015 180.438 66.4358 181.072 66.0379C181.706 65.6401 182.43 65.4411 183.245 65.4411C184.059 65.4411 184.783 65.6401 185.417 66.0379C186.052 66.4358 186.55 67.0015 186.914 67.7351C187.278 68.4687 187.46 69.339 187.46 70.3461ZM186.341 70.3461C186.341 69.5193 186.202 68.8215 185.926 68.2527C185.652 67.6838 185.281 67.2533 184.811 66.9611C184.345 66.6689 183.823 66.5228 183.245 66.5228C182.666 66.5228 182.143 66.6689 181.673 66.9611C181.207 67.2533 180.836 67.6838 180.559 68.2527C180.285 68.8215 180.149 69.5193 180.149 70.3461C180.149 71.173 180.285 71.8708 180.559 72.4396C180.836 73.0085 181.207 73.439 181.673 73.7312C182.143 74.0233 182.666 74.1694 183.245 74.1694C183.823 74.1694 184.345 74.0233 184.811 73.7312C185.281 73.439 185.652 73.0085 185.926 72.4396C186.202 71.8708 186.341 71.173 186.341 70.3461ZM189.404 75.1206V65.5717H195.13V66.5974H190.56V69.8239H194.701V70.8497H190.56V75.1206H189.404ZM197.11 75.1206V65.5717H202.836V66.5974H198.266V69.8239H202.407V70.8497H198.266V75.1206H197.11Z" fill="#1A148F"/>
<defs>
<linearGradient id="paint0_linear_1_10114" x1="113.203" y1="155" x2="113.203" y2="77.5" gradientUnits="userSpaceOnUse">
<stop stop-color="#F4F6F9"/>
<stop offset="1" stop-color="#D5D7DF"/>
</linearGradient>
</defs>
</svg>
