<svg width="25" height="22" viewBox="0 0 25 22" fill="none" xmlns="http://www.w3.org/2000/svg">
<g id="Group 22">
<path id="Vector" d="M10.655 16.9913C10.9503 17.0759 11.2627 17.0599 11.5492 16.9454C11.8356 16.8309 12.082 16.6235 12.2544 16.3519C12.4273 16.072 12.5186 15.7432 12.5151 15.4064L12.4367 13.2056C12.4201 12.6525 12.5235 12.1029 12.7386 11.6002C12.9536 11.0976 13.2745 10.6558 13.6758 10.3098L15.3047 8.93213C15.5416 8.71709 15.7099 8.42744 15.7859 8.104C15.8618 7.78055 15.8415 7.43961 15.7279 7.12921C15.6143 6.81882 15.4131 6.55462 15.1526 6.37384C14.8922 6.19306 14.5856 6.10481 14.276 6.12153L12.2284 6.20557C11.7144 6.2238 11.2035 6.11278 10.7363 5.88134C10.2691 5.6499 9.85845 5.3044 9.53696 4.87228L8.25592 3.12415C8.05896 2.86988 7.79327 2.688 7.49582 2.60384C7.19836 2.51968 6.88394 2.5374 6.59628 2.65456C6.30862 2.77171 6.06204 2.98247 5.89083 3.2575C5.71963 3.53253 5.63231 3.85817 5.64103 4.18911L5.71939 6.43385C5.73135 6.97369 5.62917 7.50939 5.42058 8.00049C5.21198 8.49158 4.90242 8.92521 4.51529 9.26861L2.88622 10.6415C2.65019 10.8537 2.48139 11.1397 2.40326 11.4599C2.32513 11.7801 2.34153 12.1185 2.45021 12.4282C2.55888 12.7378 2.75442 13.0034 3.00969 13.188C3.26496 13.3726 3.56729 13.4671 3.8747 13.4583L5.91955 13.3705C6.43589 13.3527 6.94893 13.4654 7.41749 13.6996C7.88606 13.9338 8.29712 14.2829 8.6177 14.719L9.90021 16.4714C10.0959 16.7254 10.3603 16.9066 10.655 16.9913Z" fill="white"/>
<path id="Vector_2" opacity="0.9" d="M19.1514 19.9789C19.2077 20.0947 19.296 20.1888 19.4041 20.2483C19.5122 20.3078 19.6348 20.3298 19.755 20.3111C19.8776 20.2904 19.9915 20.2308 20.0821 20.1392L20.6595 19.5232C20.8055 19.3694 20.9827 19.2543 21.1772 19.187C21.3717 19.1197 21.578 19.1022 21.7799 19.1357L22.5922 19.2788C22.7144 19.2957 22.8383 19.2709 22.9467 19.2079C23.0551 19.145 23.1423 19.047 23.1962 18.9278C23.2501 18.8086 23.2679 18.6742 23.2471 18.5436C23.2262 18.4129 23.1679 18.2926 23.0802 18.1995L22.5072 17.5769C22.3641 17.4198 22.257 17.229 22.1944 17.0196C22.1319 16.8102 22.1155 16.588 22.1466 16.3706L22.2778 15.4972C22.2941 15.3668 22.2721 15.2342 22.2151 15.1179C22.1581 15.0016 22.0688 14.9072 21.9596 14.8481C21.8505 14.7889 21.7269 14.7678 21.6061 14.7878C21.4853 14.8077 21.3733 14.8677 21.2857 14.9594L20.6963 15.5871C20.5527 15.736 20.3796 15.8477 20.19 15.9139C20.0004 15.9801 19.7993 15.9991 19.6019 15.9693L18.7909 15.8248C18.6698 15.8075 18.5466 15.8311 18.4386 15.8925C18.3305 15.9539 18.2429 16.05 18.1879 16.1675C18.1329 16.2849 18.1132 16.4179 18.1316 16.5479C18.15 16.678 18.2055 16.7986 18.2905 16.8931L18.8638 17.5139C19.0073 17.6718 19.1145 17.8638 19.1767 18.0743C19.2389 18.2849 19.2544 18.5082 19.222 18.7264L19.09 19.6014C19.0735 19.7313 19.0952 19.8633 19.1514 19.9789Z" fill="#BDC5C9"/>
</g>
</svg>
