<svg width="28" height="26" viewBox="0 0 28 26" fill="none" xmlns="http://www.w3.org/2000/svg">
<path d="M7.43358 4.77763L7.52302 7.37229L7.52348 7.38548L7.52339 7.38549C7.54026 8.15627 7.39637 8.92678 7.09779 9.63854C6.79909 10.3506 6.35299 10.9859 5.78913 11.4923L5.77916 11.5013L5.76897 11.51L3.92145 13.0866C3.82095 13.1816 3.74025 13.316 3.70072 13.48C3.65974 13.65 3.66689 13.838 3.72809 14.0146C3.78929 14.1911 3.8978 14.337 4.03119 14.4346C4.16217 14.5305 4.30639 14.5728 4.44105 14.5701L6.7715 14.4688L6.77962 14.4684L6.77962 14.4684C7.53223 14.4422 8.27352 14.6088 8.9447 14.9484C9.61556 15.2879 10.1985 15.7911 10.6505 16.4137L10.6516 16.4153L12.1105 18.4338C12.216 18.5693 12.351 18.6581 12.4891 18.6983L7.43358 4.77763ZM7.43358 4.77763C7.4295 4.59468 7.47782 4.42649 7.55939 4.29379C7.64078 4.1614 7.75196 4.06865 7.87381 4.0184C7.99563 3.96816 8.13485 3.95761 8.27553 3.99792C8.41474 4.03781 8.55085 4.12679 8.658 4.26347L10.1145 6.27603L10.1145 6.27605L10.1186 6.28158C10.5718 6.8985 11.1541 7.3964 11.823 7.73192C12.4922 8.06761 13.2303 8.23168 13.9794 8.20479L13.9794 8.2048L13.9848 8.20458L16.3269 8.10724L16.3269 8.10733L16.3394 8.10665C16.4758 8.09919 16.6232 8.13793 16.758 8.23265C16.8935 8.32789 17.005 8.47254 17.069 8.64953C17.1329 8.82655 17.1422 9.01618 17.1023 9.18833C17.0639 9.35398 16.9836 9.48996 16.883 9.58638L15.037 11.1673L15.037 11.1672L15.0294 11.1738C14.4448 11.6843 13.9822 12.3318 13.6742 13.0607C13.3664 13.7892 13.2209 14.5797 13.2442 15.3693L13.2442 15.3693L13.2444 15.3752L13.3336 17.909C13.3336 18.0978 13.2829 18.2727 13.1971 18.4156C13.1159 18.5428 13.0068 18.6318 12.8875 18.6801C12.7667 18.729 12.6287 18.7388 12.4894 18.6984L7.43358 4.77763Z" fill="black" stroke="black" stroke-width="2"/>
<path opacity="0.9" d="M23.2794 22.2428L23.2794 22.2428C23.4962 22.0115 23.7609 21.8367 24.0539 21.7341C24.3469 21.6315 24.6604 21.6038 24.9694 21.6557L24.9741 21.6565L24.9741 21.6565L25.8917 21.8203C25.9246 21.8236 25.9619 21.8167 25.9982 21.7953C26.0369 21.7725 26.0707 21.7353 26.0919 21.6877C26.1132 21.64 26.1191 21.5885 26.1118 21.5419L26.5906 21.4776L26.1118 21.5419C26.1045 21.4956 26.0851 21.4584 26.0608 21.4324L26.0565 21.4277L26.0565 21.4277L25.4011 20.7065L25.3992 20.7044L25.3992 20.7044C25.1802 20.4609 25.018 20.167 24.9237 19.8474C24.8294 19.528 24.8054 19.1915 24.8517 18.8645L24.8522 18.861L24.8522 18.861L25.001 17.8578C25.006 17.8095 24.9971 17.7649 24.98 17.7295C24.9625 17.6933 24.937 17.6674 24.9086 17.6518C24.8801 17.6362 24.8457 17.6292 24.8083 17.6354L24.7137 17.1276L24.8083 17.6354C24.7709 17.6417 24.7317 17.6613 24.6985 17.696L24.0262 18.4211L24.0218 18.4258L24.0218 18.4258C23.8085 18.6496 23.5499 18.8192 23.2643 18.9201C22.9787 19.0212 22.6733 19.0509 22.3712 19.0048L22.3587 19.0029L22.3587 19.0028L21.4416 18.8373C21.4089 18.8337 21.3718 18.8403 21.3356 18.8611C21.2971 18.8833 21.2633 18.9197 21.2415 18.9666C21.2198 19.0136 21.2131 19.0647 21.2196 19.1114C21.226 19.1567 21.244 19.1938 21.2669 19.2203L21.9195 19.9358L21.9223 19.9389L21.9223 19.9389C22.1421 20.1837 22.3045 20.4794 22.3983 20.8008C22.492 21.1221 22.5146 21.4603 22.4664 21.7884L22.4663 21.7895L22.3165 22.7951C22.3114 22.8426 22.32 22.8868 22.3369 22.9221L23.2794 22.2428ZM23.2794 22.2428L23.2775 22.2449M23.2794 22.2428L23.2775 22.2449M23.2775 22.2449L22.6224 22.9525C22.5867 22.9878 22.5448 23.0088 22.503 23.0166C22.4673 23.0216 22.4345 23.0145 22.4072 22.9993C22.3793 22.9837 22.3542 22.958 22.337 22.9222L23.2775 22.2449Z" fill="black" stroke="black"/>
</svg>
