<svg width="10" height="9" viewBox="0 0 10 9" fill="none" xmlns="http://www.w3.org/2000/svg">
<path d="M5.6 2.45606H0.4C0.293913 2.45606 0.192172 2.40886 0.117157 2.32484C0.0421427 2.24083 0 2.12688 0 2.00806C0 1.88924 0.0421427 1.77529 0.117157 1.69127C0.192172 1.60726 0.293913 1.56006 0.4 1.56006H5.6C5.70609 1.56006 5.80783 1.60726 5.88284 1.69127C5.95786 1.77529 6 1.88924 6 2.00806C6 2.12688 5.95786 2.24083 5.88284 2.32484C5.80783 2.40886 5.70609 2.45606 5.6 2.45606ZM9.2 2.45606H7.6C7.49391 2.45606 7.39217 2.40886 7.31716 2.32484C7.24214 2.24083 7.2 2.12688 7.2 2.00806C7.2 1.88924 7.24214 1.77529 7.31716 1.69127C7.39217 1.60726 7.49391 1.56006 7.6 1.56006H9.2C9.30609 1.56006 9.40783 1.60726 9.48284 1.69127C9.55786 1.77529 9.6 1.88924 9.6 2.00806C9.6 2.12688 9.55786 2.24083 9.48284 2.32484C9.40783 2.40886 9.30609 2.45606 9.2 2.45606Z" fill="#363644"/>
<path d="M6.6 3.57594C6.32311 3.57594 6.05243 3.48398 5.8222 3.31169C5.59197 3.13939 5.41253 2.8945 5.30657 2.60799C5.20061 2.32147 5.17288 2.0062 5.2269 1.70204C5.28092 1.39788 5.41426 1.11849 5.61005 0.899199C5.80584 0.67991 6.0553 0.530572 6.32687 0.470071C6.59845 0.409569 6.87994 0.440621 7.13576 0.559299C7.39157 0.677977 7.61022 0.878951 7.76406 1.13681C7.91789 1.39466 8 1.69782 8 2.00794C8 2.4238 7.8525 2.82263 7.58995 3.11669C7.3274 3.41074 6.9713 3.57594 6.6 3.57594ZM6.6 1.33594C6.48133 1.33594 6.36533 1.37535 6.26666 1.44919C6.16799 1.52303 6.09109 1.62799 6.04567 1.75078C6.00026 1.87357 5.98838 2.00869 6.01153 2.13904C6.03468 2.2694 6.09183 2.38914 6.17574 2.48312C6.25965 2.5771 6.36656 2.6411 6.48295 2.66703C6.59933 2.69296 6.71997 2.67965 6.82961 2.62879C6.93925 2.57793 7.03295 2.49179 7.09888 2.38128C7.16481 2.27078 7.2 2.14085 7.2 2.00794C7.2 1.82972 7.13679 1.65879 7.02426 1.53277C6.91174 1.40674 6.75913 1.33594 6.6 1.33594ZM9.2 6.93594H4C3.89391 6.93594 3.79217 6.88874 3.71716 6.80473C3.64214 6.72071 3.6 6.60676 3.6 6.48794C3.6 6.36912 3.64214 6.25517 3.71716 6.17116C3.79217 6.08714 3.89391 6.03994 4 6.03994H9.2C9.30609 6.03994 9.40783 6.08714 9.48284 6.17116C9.55786 6.25517 9.6 6.36912 9.6 6.48794C9.6 6.60676 9.55786 6.72071 9.48284 6.80473C9.40783 6.88874 9.30609 6.93594 9.2 6.93594ZM2 6.93594H0.4C0.293913 6.93594 0.192172 6.88874 0.117157 6.80473C0.0421427 6.72071 0 6.60676 0 6.48794C0 6.36912 0.0421427 6.25517 0.117157 6.17116C0.192172 6.08714 0.293913 6.03994 0.4 6.03994H2C2.10609 6.03994 2.20783 6.08714 2.28284 6.17116C2.35786 6.25517 2.4 6.36912 2.4 6.48794C2.4 6.60676 2.35786 6.72071 2.28284 6.80473C2.20783 6.88874 2.10609 6.93594 2 6.93594Z" fill="#363644"/>
<path d="M2.99998 8.05592C2.72308 8.05592 2.45241 7.96396 2.22218 7.79167C1.99195 7.61937 1.81251 7.37448 1.70654 7.08797C1.60058 6.80146 1.57286 6.48618 1.62688 6.18202C1.6809 5.87786 1.81423 5.59847 2.01003 5.37918C2.20582 5.15989 2.45528 5.01055 2.72685 4.95005C2.99842 4.88955 3.27992 4.9206 3.53573 5.03928C3.79155 5.15796 4.0102 5.35893 4.16403 5.61679C4.31787 5.87464 4.39998 6.1778 4.39998 6.48792C4.39998 6.90378 4.25248 7.30261 3.98993 7.59667C3.72737 7.89072 3.37128 8.05592 2.99998 8.05592ZM2.99998 5.81592C2.88131 5.81592 2.7653 5.85533 2.66663 5.92918C2.56796 6.00302 2.49106 6.10797 2.44565 6.23076C2.40024 6.35355 2.38835 6.48867 2.4115 6.61902C2.43466 6.74938 2.4918 6.86912 2.57571 6.9631C2.65962 7.05708 2.76653 7.12108 2.88292 7.14701C2.99931 7.17294 3.11995 7.15963 3.22959 7.10877C3.33922 7.05791 3.43293 6.97178 3.49886 6.86127C3.56479 6.75076 3.59998 6.62083 3.59998 6.48792C3.59998 6.3097 3.53676 6.13877 3.42424 6.01275C3.31172 5.88672 3.15911 5.81592 2.99998 5.81592Z" fill="#363644"/>
</svg>
