<svg width="22" height="22" viewBox="0 0 22 22" fill="none" xmlns="http://www.w3.org/2000/svg">
<path d="M10.0834 8.24992H11.9167V6.41659H10.0834M11 18.3333C6.95754 18.3333 3.66671 15.0424 3.66671 10.9999C3.66671 6.95742 6.95754 3.66659 11 3.66659C15.0425 3.66659 18.3334 6.95742 18.3334 10.9999C18.3334 15.0424 15.0425 18.3333 11 18.3333ZM11 1.83325C9.79626 1.83325 8.60426 2.07035 7.49211 2.53102C6.37996 2.99169 5.36943 3.6669 4.51823 4.51811C2.79915 6.23719 1.83337 8.56877 1.83337 10.9999C1.83337 13.4311 2.79915 15.7626 4.51823 17.4817C5.36943 18.3329 6.37996 19.0081 7.49211 19.4688C8.60426 19.9295 9.79626 20.1666 11 20.1666C13.4312 20.1666 15.7628 19.2008 17.4819 17.4817C19.2009 15.7626 20.1667 13.4311 20.1667 10.9999C20.1667 9.79613 19.9296 8.60414 19.4689 7.49199C19.0083 6.37984 18.3331 5.36931 17.4819 4.51811C16.6306 3.6669 15.6201 2.99169 14.508 2.53102C13.3958 2.07035 12.2038 1.83325 11 1.83325ZM10.0834 15.5833H11.9167V10.0833H10.0834V15.5833Z" fill="black"/>
</svg>
