<svg width="10" height="10" viewBox="0 0 10 10" fill="none" xmlns="http://www.w3.org/2000/svg">
<mask id="path-1-inside-1_1_12059" fill="white">
<path d="M9.53125 9.02479L7.19613 6.62937C7.74777 5.93282 8.04709 5.07268 8.04598 4.18719C8.04598 3.39859 7.81004 2.6277 7.36799 1.972C6.92593 1.3163 6.29763 0.805247 5.56252 0.503463C4.82742 0.201679 4.01853 0.122718 3.23815 0.276567C2.45776 0.430415 1.74093 0.810162 1.17831 1.36779C0.615683 1.92541 0.23253 2.63587 0.0773024 3.40932C-0.0779255 4.18276 0.0017431 4.98446 0.306234 5.71303C0.610724 6.44161 1.12636 7.06433 1.78794 7.50245C2.44952 7.94057 3.22732 8.17442 4.02299 8.17442C4.91643 8.17552 5.78428 7.87886 6.48707 7.33212L8.81717 9.73252C8.86392 9.77924 8.91954 9.81632 8.98082 9.84162C9.0421 9.86692 9.10783 9.87995 9.17421 9.87995C9.2406 9.87995 9.30632 9.86692 9.3676 9.84162C9.42888 9.81632 9.4845 9.77924 9.53125 9.73252C9.57838 9.68619 9.6158 9.63107 9.64133 9.57033C9.66686 9.5096 9.68 9.44445 9.68 9.37866C9.68 9.31286 9.66686 9.24772 9.64133 9.18698C9.6158 9.12625 9.57838 9.07112 9.53125 9.02479ZM1.00575 4.18719C1.00575 3.59574 1.18271 3.01757 1.51425 2.5258C1.84579 2.03402 2.31701 1.65073 2.86834 1.42439C3.41967 1.19806 4.02634 1.13884 4.61163 1.25422C5.19692 1.36961 5.73454 1.65442 6.15651 2.07264C6.57847 2.49085 6.86584 3.0237 6.98226 3.60378C7.09868 4.18387 7.03893 4.78514 6.81056 5.33157C6.58219 5.878 6.19547 6.34504 5.69928 6.67363C5.2031 7.00223 4.61975 7.17761 4.02299 7.17761C3.22277 7.17761 2.45532 6.86255 1.88948 6.30174C1.32364 5.74092 1.00575 4.9803 1.00575 4.18719Z"/>
</mask>
<path d="M9.53125 9.02479L7.19613 6.62937C7.74777 5.93282 8.04709 5.07268 8.04598 4.18719C8.04598 3.39859 7.81004 2.6277 7.36799 1.972C6.92593 1.3163 6.29763 0.805247 5.56252 0.503463C4.82742 0.201679 4.01853 0.122718 3.23815 0.276567C2.45776 0.430415 1.74093 0.810162 1.17831 1.36779C0.615683 1.92541 0.23253 2.63587 0.0773024 3.40932C-0.0779255 4.18276 0.0017431 4.98446 0.306234 5.71303C0.610724 6.44161 1.12636 7.06433 1.78794 7.50245C2.44952 7.94057 3.22732 8.17442 4.02299 8.17442C4.91643 8.17552 5.78428 7.87886 6.48707 7.33212L8.81717 9.73252C8.86392 9.77924 8.91954 9.81632 8.98082 9.84162C9.0421 9.86692 9.10783 9.87995 9.17421 9.87995C9.2406 9.87995 9.30632 9.86692 9.3676 9.84162C9.42888 9.81632 9.4845 9.77924 9.53125 9.73252C9.57838 9.68619 9.6158 9.63107 9.64133 9.57033C9.66686 9.5096 9.68 9.44445 9.68 9.37866C9.68 9.31286 9.66686 9.24772 9.64133 9.18698C9.6158 9.12625 9.57838 9.07112 9.53125 9.02479ZM1.00575 4.18719C1.00575 3.59574 1.18271 3.01757 1.51425 2.5258C1.84579 2.03402 2.31701 1.65073 2.86834 1.42439C3.41967 1.19806 4.02634 1.13884 4.61163 1.25422C5.19692 1.36961 5.73454 1.65442 6.15651 2.07264C6.57847 2.49085 6.86584 3.0237 6.98226 3.60378C7.09868 4.18387 7.03893 4.78514 6.81056 5.33157C6.58219 5.878 6.19547 6.34504 5.69928 6.67363C5.2031 7.00223 4.61975 7.17761 4.02299 7.17761C3.22277 7.17761 2.45532 6.86255 1.88948 6.30174C1.32364 5.74092 1.00575 4.9803 1.00575 4.18719Z" fill="#363644"/>
<path d="M9.53125 9.02479L8.66481 9.86942L8.67381 9.87865L8.68301 9.88769L9.53125 9.02479ZM7.19613 6.62937L6.24757 5.87813L5.58704 6.71216L6.32969 7.47399L7.19613 6.62937ZM8.04598 4.18719H6.83598L6.83598 4.1887L8.04598 4.18719ZM4.02299 8.17442L4.02448 6.96442H4.02299V8.17442ZM6.48707 7.33212L7.35529 6.48933L6.59999 5.71123L5.7441 6.37708L6.48707 7.33212ZM8.81717 9.73252L7.94895 10.5753L7.95537 10.5819L7.96188 10.5884L8.81717 9.73252ZM9.53125 9.73252L8.68298 8.8696L8.67596 8.87661L9.53125 9.73252ZM1.00575 4.18719H-0.204251H1.00575ZM4.02299 7.17761V8.38761V7.17761ZM10.3977 8.18017L8.06256 5.78474L6.32969 7.47399L8.66481 9.86942L10.3977 8.18017ZM8.14468 7.3806C8.86533 6.47065 9.25744 5.34542 9.25598 4.18567L6.83598 4.1887C6.83675 4.79994 6.63021 5.39499 6.24757 5.87813L8.14468 7.3806ZM9.25598 4.18719C9.25598 3.15685 8.94766 2.15056 8.37128 1.29561L6.36469 2.64839C6.67242 3.10483 6.83598 3.64032 6.83598 4.18719H9.25598ZM8.37128 1.29561C7.79498 0.440788 6.97702 -0.223838 6.02205 -0.615883L5.103 1.62281C5.61824 1.83433 6.05688 2.19181 6.36469 2.64839L8.37128 1.29561ZM6.02205 -0.615883C5.06718 -1.00789 4.01709 -1.11029 3.00411 -0.910584L3.47219 1.46372C4.01997 1.35572 4.58765 1.41124 5.103 1.62281L6.02205 -0.615883ZM3.00411 -0.910584C1.99107 -0.710869 1.05907 -0.217646 0.326537 0.508376L2.03008 2.2272C2.4228 1.83797 2.92446 1.5717 3.47219 1.46372L3.00411 -0.910584ZM0.326537 0.508376C-0.406111 1.23451 -0.90629 2.16098 -1.10904 3.17122L1.26365 3.64741C1.37135 3.11075 1.63748 2.61631 2.03008 2.2272L0.326537 0.508376ZM-1.10904 3.17122C-1.31181 4.18153 -1.20764 5.22861 -0.810189 6.17962L1.42266 5.24645C1.21113 4.74031 1.15595 4.184 1.26365 3.64741L-1.10904 3.17122ZM-0.810189 6.17962C-0.412784 7.13051 0.259455 7.9415 1.11985 8.51129L2.45603 6.49361C1.99327 6.18715 1.63423 5.7527 1.42266 5.24645L-0.810189 6.17962ZM1.11985 8.51129C1.98012 9.08099 2.9904 9.38442 4.02299 9.38442V6.96442C3.46424 6.96442 2.91892 6.80015 2.45603 6.49361L1.11985 8.51129ZM4.0215 9.38442C5.18357 9.38585 6.31366 9.00006 7.23005 8.28715L5.7441 6.37708C5.25491 6.75765 4.64928 6.96519 4.02448 6.96442L4.0215 9.38442ZM5.61885 8.17491L7.94895 10.5753L9.68539 8.88973L7.35529 6.48933L5.61885 8.17491ZM7.96188 10.5884C8.1216 10.748 8.31105 10.8742 8.51901 10.96L9.44262 8.72321C9.52803 8.75848 9.60624 8.81044 9.67246 8.87661L7.96188 10.5884ZM8.51901 10.96C8.72694 11.0459 8.94959 11.09 9.17421 11.09V8.66995C9.26606 8.66995 9.35725 8.68796 9.44262 8.72321L8.51901 10.96ZM9.17421 11.09C9.39883 11.09 9.62148 11.0459 9.82941 10.96L8.9058 8.72321C8.99117 8.68796 9.08236 8.66995 9.17421 8.66995V11.09ZM9.82941 10.96C10.0374 10.8742 10.2268 10.748 10.3865 10.5884L8.67596 8.87661C8.74219 8.81044 8.82039 8.75848 8.9058 8.72321L9.82941 10.96ZM10.3795 10.5954C10.5405 10.4371 10.6689 10.2482 10.7568 10.0392L8.52587 9.10145C8.56265 9.01395 8.61624 8.93526 8.68301 8.86963L10.3795 10.5954ZM10.7568 10.0392C10.8446 9.83024 10.89 9.6057 10.89 9.37866H8.47C8.47 9.2832 8.48908 9.18896 8.52587 9.10145L10.7568 10.0392ZM10.89 9.37866C10.89 9.15161 10.8446 8.92708 10.7568 8.7181L8.52587 9.65587C8.48908 9.56836 8.47 9.47411 8.47 9.37866H10.89ZM10.7568 8.7181C10.6689 8.50913 10.5405 8.3202 10.3795 8.1619L8.68301 9.88769C8.61624 9.82205 8.56265 9.74337 8.52587 9.65587L10.7568 8.7181ZM2.21575 4.18719C2.21575 3.83747 2.32033 3.49471 2.51754 3.20219L0.510954 1.8494C0.0450854 2.54043 -0.204251 3.354 -0.204251 4.18719H2.21575ZM2.51754 3.20219C2.71484 2.90954 2.9964 2.67982 3.32787 2.54374L2.40882 0.305048C1.63763 0.621647 0.976736 1.15851 0.510954 1.8494L2.51754 3.20219ZM3.32787 2.54374C3.65944 2.40762 4.0249 2.37184 4.37759 2.44137L4.84567 0.0670712C4.02778 -0.0941702 3.17991 -0.0115096 2.40882 0.305048L3.32787 2.54374ZM4.37759 2.44137C4.73022 2.51089 5.05267 2.68223 5.30473 2.93205L7.00828 1.21323C6.4164 0.626611 5.66361 0.228324 4.84567 0.0670712L4.37759 2.44137ZM5.30473 2.93205C5.55668 3.18175 5.72702 3.49858 5.79592 3.84188L8.1686 3.36569C8.00466 2.54881 7.60027 1.79996 7.00828 1.21323L5.30473 2.93205ZM5.79592 3.84188C5.8648 4.18511 5.82955 4.54099 5.69414 4.86499L7.92698 5.79816C8.24831 5.0293 8.33256 4.18263 8.1686 3.36569L5.79592 3.84188ZM5.69414 4.86499C5.55868 5.1891 5.32856 5.46787 5.03119 5.6648L6.36738 7.68247C7.06237 7.22222 7.6057 6.56691 7.92698 5.79816L5.69414 4.86499ZM5.03119 5.6648C4.7337 5.86181 4.38282 5.96761 4.02299 5.96761V8.38761C4.85667 8.38761 5.6725 8.14264 6.36738 7.68247L5.03119 5.6648ZM4.02299 5.96761C3.54021 5.96761 3.07936 5.77743 2.74125 5.44233L1.03771 7.16115C1.83128 7.94767 2.90533 8.38761 4.02299 8.38761V5.96761ZM2.74125 5.44233C2.40351 5.10758 2.21575 4.65588 2.21575 4.18719H-0.204251C-0.204251 5.30471 0.243767 6.37426 1.03771 7.16115L2.74125 5.44233Z" fill="#363644" mask="url(#path-1-inside-1_1_12059)"/>
</svg>
